<svg xmlns="http://www.w3.org/2000/svg" viewBox="0 0 16.9 16.1"><path fill="#233341" d="M13 6.2h-1.6c-.2 0-.4-.2-.4-.3V1c0-.2.2-.4.4-.4H13c.3 0 .4.2.4.4v4.9c0 .1-.2.3-.4.3z"/><path fill="#2D9FBD" d="M1.4 7.7c1.1 0 1.6.6 1.6.6v7.1l11.3.2V7.7h1.8l-.5-.7L8.9.7l-.3.2-1.3.8-4.2 3.5-2 2.3-.5.2h.8z"/><path fill="#2D9FBD" d="M12.6 5.8h-.8c-.2 0-.3-.1-.3-.3V1.4c0-.2.1-.3.3-.3h.8c.2 0 .3.1.3.3v4.1c0 .2-.2.3-.3.3z"/><path fill="#233341" d="M5.7 15.2h6.5v.9H5.7z"/><path fill="#233341" d="M8.8.1l4 3.8 4 3.8c.2.2.2.4 0 .5-.1.1-.2.1-.3.1h-2.1v7.3c0 .3-.2.4-.4.4h-3.2c-.3 0-.4-.2-.4-.4V10H6.5v5.6c0 .3-.2.4-.4.4H2.9c-.3 0-.4-.2-.4-.4V8.3H.4c-.2 0-.4-.2-.4-.5 0-.1.1-.3.2-.4l4-3.7 4-3.8c.2.1.4.1.6.2zm3.4 4.3L8.5 1 4.7 4.4l-3.2 3h1.4c.3 0 .4.2.4.4v7.3h2.4V9.6c0-.3.2-.4.4-.4H11c.3 0 .4.2.4.4v5.6h2.4V7.9c0-.3.2-.4.4-.4h1.4l-3.4-3.1z"/><path fill="#2D9FBD" d="M5.5 8.9h6.9v6.3H5.5z"/></svg>