<?xml version="1.0" encoding="utf-8"?>
<!-- Generator: Adobe Illustrator 22.0.0, SVG Export Plug-In . SVG Version: 6.00 Build 0)  -->
<svg version="1.1" id="Layer_1" xmlns="http://www.w3.org/2000/svg" xmlns:xlink="http://www.w3.org/1999/xlink" x="0px" y="0px"
	 viewBox="0 0 21 21" style="enable-background:new 0 0 21 21;" xml:space="preserve">
<style type="text/css">
	.st0{fill:#233341;}
	.st1{fill:none;}
	.st2{fill:#1BAC9D;}
</style>
<path class="st0" style="fill:#233341;" d="M15.5,8.1h-1.8c-0.2,0-0.4-0.2-0.4-0.4V2.2c0-0.2,0.2-0.4,0.4-0.4h1.8C15.8,1.8,16,2,16,2.2v5.5
	C16,7.9,15.8,8.1,15.5,8.1z"/>
<title>star-15.svg</title>
<rect x="-18.5" y="27.7" class="st1" style="fill:none;" width="21" height="21"/>
<path class="st2" style="fill:#1BAC9D;" d="M2.6,9.8c1.2-0.1,1.8,0.6,1.8,0.6v7.9L17,18.5V9.8H19L18.5,9L11,1.9l-0.4,0.2L9.2,3l-4.7,4L2.2,9.5L1.7,9.8H2.6
	z"/>
<path class="st2"  style="fill:#1BAC9D;" d="M15.1,7.6h-0.9c-0.2,0-0.3-0.1-0.3-0.3V2.7c0-0.2,0.1-0.3,0.3-0.3h0.9c0.2,0,0.3,0.1,0.3,0.3v4.6
	C15.4,7.5,15.2,7.6,15.1,7.6z"/>
<rect x="7.4" y="18.1" class="st0" style="fill:#233341;" width="7.3" height="1"/>
<g>
	<path class="st0" style="fill:#233341;" d="M10.8,1.3l4.5,4.2l4.5,4.2c0.2,0.2,0.2,0.5,0,0.6c-0.1,0.1-0.2,0.1-0.3,0.1l0,0h-2.3v8.2
		c0,0.3-0.2,0.5-0.5,0.5h-3.6c-0.3,0-0.5-0.2-0.5-0.5v-6.3H8.3v6.3c0,0.3-0.2,0.5-0.5,0.5H4.3c-0.3,0-0.5-0.2-0.5-0.5v-8.2H1.5
		C1.2,10.4,1,10.2,1,9.9c0-0.1,0.1-0.3,0.2-0.4l4.5-4.1l4.5-4.2C10.4,1.1,10.6,1.1,10.8,1.3L10.8,1.3z M14.7,6.1l-4.2-3.9L6.3,6.1
		L2.7,9.5h1.6c0.3,0,0.5,0.2,0.5,0.5v8.2h2.7v-6.3c0-0.3,0.2-0.5,0.5-0.5h5.3c0.3,0,0.5,0.2,0.5,0.5v6.3h2.7V10
		c0-0.3,0.2-0.5,0.5-0.5h1.6L14.7,6.1z"/>
</g>
<rect x="7.1" y="11.1" class="st2"  style="fill:#1BAC9D;" width="7.7" height="7.1"/>
</svg>
