<?xml version="1.0" encoding="utf-8"?>
<svg version="1.1" id="Layer_1" xmlns="http://www.w3.org/2000/svg" xmlns:xlink="http://www.w3.org/1999/xlink" x="0px" y="0px"
	 viewBox="0 0 16.9 16.1" style="enable-background:new 0 0 16.9 16.1;" xml:space="preserve">
<path fill="#233341" d="M13,6.2h-1.6C11.2,6.2,11,6,11,5.9V1c0-0.2,0.2-0.4,0.4-0.4H13c0.3,0,0.4,0.2,0.4,0.4v4.9
	C13.4,6,13.2,6.2,13,6.2z"/>
<path fill="#2D9FBD" d="M1.4,7.7C2.5,7.7,3,8.3,3,8.3v7.1l11.3,0.2V7.7h1.8L15.6,7L8.9,0.7L8.6,0.9L7.3,1.7L3.1,5.2L1.1,7.5L0.6,7.7
	H1.4z"/>
<path fill="#2D9FBD" d="M12.6,5.8h-0.8c-0.2,0-0.3-0.1-0.3-0.3V1.4c0-0.2,0.1-0.3,0.3-0.3h0.8c0.2,0,0.3,0.1,0.3,0.3v4.1
	C12.9,5.7,12.7,5.8,12.6,5.8z"/>
<rect x="5.7" y="15.2" fill="#233341" width="6.5" height="0.9"/>
<g>
	<path fill="#233341" d="M8.8,0.1l4,3.8l4,3.8c0.2,0.2,0.2,0.4,0,0.5c-0.1,0.1-0.2,0.1-0.3,0.1l0,0h-2.1v7.3c0,0.3-0.2,0.4-0.4,0.4
		h-3.2c-0.3,0-0.4-0.2-0.4-0.4V10H6.5v5.6c0,0.3-0.2,0.4-0.4,0.4H2.9c-0.3,0-0.4-0.2-0.4-0.4V8.3H0.4C0.2,8.3,0,8.1,0,7.8
		c0-0.1,0.1-0.3,0.2-0.4l4-3.7l4-3.8C8.4,0,8.6,0,8.8,0.1L8.8,0.1z M12.2,4.4L8.5,1L4.7,4.4l-3.2,3h1.4c0.3,0,0.4,0.2,0.4,0.4v7.3
		h2.4V9.6c0-0.3,0.2-0.4,0.4-0.4H11c0.3,0,0.4,0.2,0.4,0.4v5.6h2.4V7.9c0-0.3,0.2-0.4,0.4-0.4h1.4L12.2,4.4z"/>
</g>
<rect x="5.5" y="8.9" fill="#2D9FBD" width="6.9" height="6.3"/>
</svg>
