<svg xmlns="http://www.w3.org/2000/svg" viewBox="0 0 21 21"><path d="M19.7 9.5c.4-.3.5-.8.3-1.3s-.6-.8-1.1-.9l-4.5-.6c-.2 0-.4-.1-.4-.3l-2-3.9c-.2-.4-.7-.7-1.2-.7s-1 .3-1.2.7l-2 3.9c0 .2-.2.3-.4.3l-4.4.6c-.5.1-.9.4-1.1.9-.2.5 0 1 .3 1.3l3.2 3.1c.1.1.2.3.2.5l-.8 4.3c-.1.4 0 .7.3 1 .5.5 1.1.6 1.7.4l4-2c.2-.1.4-.1.5 0l4 2c.2.1.4.2.6.2.4 0 .8-.2 1-.5.3-.3.4-.7.3-1l-.8-4.3c0-.2 0-.4.2-.5l3.3-3.2z" fill="#2a2a2f"/><path d="M18.3 9.7c.3-.3.4-.7.3-1.1-.1-.4-.5-.7-.9-.7l-3.8-.5c-.2 0-.3-.1-.4-.3l-1.7-3.3c-.2-.4-.6-.6-1-.6s-.8.2-1 .6L8.2 7.1c-.1.1-.2.2-.4.2L4 7.8c-.4.1-.7.4-.9.8-.1.4 0 .8.3 1.1l2.7 2.5c.1.1.2.3.1.4l-.6 3.6c-.1.3 0 .6.2.9.3.4.9.5 1.4.3l3.4-1.7c.1-.1.3-.1.5 0l3.4 1.7c.2.1.3.1.5.1.3 0 .6-.1.9-.4.2-.2.3-.6.2-.9l-.6-3.6c0-.2 0-.3.1-.4l2.7-2.5z" fill="#2a2a2f"/></svg>
