<?xml version="1.0" encoding="utf-8"?>
<!-- Generator: Adobe Illustrator 22.0.0, SVG Export Plug-In . SVG Version: 6.00 Build 0)  -->
<svg version="1.1" id="Layer_1" xmlns="http://www.w3.org/2000/svg" xmlns:xlink="http://www.w3.org/1999/xlink" x="0px" y="0px"
	 viewBox="0 0 21 21" style="enable-background:new 0 0 21 21;" xml:space="preserve">
<title>smallstar.svg</title>
<rect style="fill:none;" width="21" height="21"/>
<path style="fill:#233341;" d="M19.7,9.5c0.4-0.3,0.5-0.8,0.3-1.3c-0.2-0.5-0.6-0.8-1.1-0.9l-4.5-0.6c-0.2,0-0.4-0.1-0.4-0.3l-2-3.9
	c-0.2-0.4-0.7-0.7-1.2-0.7c-0.5,0-1,0.3-1.2,0.7l-2,3.9C7.6,6.6,7.4,6.7,7.2,6.7L2.8,7.3C2.3,7.4,1.9,7.7,1.7,8.2
	c-0.2,0.5,0,1,0.3,1.3l3.2,3.1c0.1,0.1,0.2,0.3,0.2,0.5l-0.8,4.3c-0.1,0.4,0,0.7,0.3,1C5.4,18.9,6,19,6.6,18.8l4-2
	c0.2-0.1,0.4-0.1,0.5,0l4,2c0.2,0.1,0.4,0.2,0.6,0.2c0.4,0,0.8-0.2,1-0.5c0.3-0.3,0.4-0.7,0.3-1l-0.8-4.3c0-0.2,0-0.4,0.2-0.5
	L19.7,9.5z"/>
<path style="fill:#E23A52;" d="M18.3,9.7c0.3-0.3,0.4-0.7,0.3-1.1c-0.1-0.4-0.5-0.7-0.9-0.7l-3.8-0.5c-0.2,0-0.3-0.1-0.4-0.3l-1.7-3.3
	c-0.2-0.4-0.6-0.6-1-0.6s-0.8,0.2-1,0.6L8.2,7.1C8.1,7.2,8,7.3,7.8,7.3L4,7.8C3.6,7.9,3.3,8.2,3.1,8.6C3,9,3.1,9.4,3.4,9.7l2.7,2.5
	c0.1,0.1,0.2,0.3,0.1,0.4l-0.6,3.6c-0.1,0.3,0,0.6,0.2,0.9c0.3,0.4,0.9,0.5,1.4,0.3l3.4-1.7c0.1-0.1,0.3-0.1,0.5,0l3.4,1.7
	c0.2,0.1,0.3,0.1,0.5,0.1c0.3,0,0.6-0.1,0.9-0.4c0.2-0.2,0.3-0.6,0.2-0.9l-0.6-3.6c0-0.2,0-0.3,0.1-0.4L18.3,9.7z"/>
</svg>
